<svg width="127" height="40" viewBox="0 0 127 40" fill="none" xmlns="http://www.w3.org/2000/svg">
<path d="M116.978 0.00025207H9.53468C9.16798 0.00025207 8.80568 0.00025207 8.43995 0.00225207C8.1338 0.00425207 7.83009 0.0100621 7.521 0.0149521C6.84951 0.0228539 6.17961 0.0819283 5.5171 0.191662C4.85552 0.303785 4.21467 0.515168 3.61622 0.818662C3.0185 1.12472 2.47235 1.52242 1.99757 1.99732C1.5203 2.47089 1.12246 3.01827 0.81935 3.61841C0.5154 4.21736 0.304641 4.85919 0.19435 5.52173C0.0830109 6.18344 0.0230984 6.85277 0.01515 7.52373C0.00587 7.83033 0.00489 8.13795 0 8.44459V31.5589C0.00489 31.8694 0.00587 32.1702 0.01515 32.4808C0.0231008 33.1517 0.0830134 33.821 0.19435 34.4827C0.304336 35.1456 0.515108 35.7878 0.81935 36.387C1.12233 36.9852 1.52022 37.5303 1.99757 38.0013C2.47054 38.4783 3.01705 38.8762 3.61622 39.18C4.21467 39.4843 4.85545 39.6969 5.5171 39.8108C6.17972 39.9196 6.84956 39.9787 7.521 39.9876C7.83009 39.9944 8.1338 39.9983 8.43995 39.9983C8.80567 40.0003 9.168 40.0003 9.53468 40.0003H116.978C117.338 40.0003 117.703 40.0003 118.062 39.9983C118.367 39.9983 118.679 39.9944 118.984 39.9876C119.654 39.9792 120.323 39.9201 120.984 39.8108C121.648 39.6961 122.291 39.4835 122.892 39.18C123.491 38.8761 124.037 38.4781 124.51 38.0013C124.986 37.5285 125.384 36.9837 125.691 36.387C125.993 35.7873 126.202 35.1452 126.31 34.4827C126.422 33.8209 126.484 33.1517 126.496 32.4808C126.5 32.1702 126.5 31.8694 126.5 31.5589C126.508 31.1956 126.508 30.8343 126.508 30.4651V9.53638C126.508 9.17017 126.508 8.80689 126.5 8.44459C126.5 8.13795 126.5 7.83033 126.496 7.52369C126.484 6.85267 126.422 6.18349 126.31 5.52169C126.202 4.85953 125.993 4.21776 125.691 3.61837C125.074 2.41545 124.095 1.43628 122.892 0.818572C122.291 0.515819 121.648 0.304492 120.984 0.191572C120.323 0.0813549 119.654 0.0222598 118.984 0.0148121C118.679 0.00993207 118.367 0.00407207 118.062 0.00212207C117.703 0.00012207 117.338 0.00012207 116.978 0.00012207V0.00025207Z" fill="#A6A6A6"/>
<path d="M8.44486 39.1252C8.14019 39.1252 7.84286 39.1213 7.54058 39.1145C6.91436 39.1064 6.2896 39.0519 5.67144 38.9514C5.09503 38.8522 4.53664 38.6675 4.0147 38.4035C3.49754 38.1418 3.02585 37.7985 2.6177 37.3869C2.20364 36.9802 1.85891 36.5085 1.59719 35.9904C1.33258 35.469 1.14945 34.9101 1.05419 34.3332C0.951311 33.7134 0.895651 33.0866 0.887687 32.4582C0.881347 32.2473 0.873047 31.5451 0.873047 31.5451V8.44458C0.873047 8.44458 0.881887 7.75317 0.887737 7.55004C0.895363 6.92273 0.950696 6.2969 1.05326 5.67797C1.1487 5.09949 1.33197 4.53899 1.59673 4.01587C1.85749 3.49819 2.2003 3.02611 2.61186 2.61792C3.02296 2.20587 3.49617 1.86085 4.01421 1.59545C4.53495 1.33234 5.09228 1.14898 5.66753 1.05151C6.28772 0.95008 6.91465 0.89524 7.54304 0.887454L8.44536 0.875244H118.057L118.97 0.887944C119.593 0.895343 120.214 0.949694 120.829 1.05053C121.41 1.14922 121.973 1.33386 122.5 1.59838C123.538 2.13323 124.382 2.97941 124.915 4.01831C125.175 4.53782 125.356 5.09375 125.45 5.66723C125.554 6.29124 125.612 6.92198 125.624 7.55444C125.627 7.83764 125.627 8.14184 125.627 8.44458C125.635 8.81958 125.635 9.17651 125.635 9.53637V30.465C125.635 30.8283 125.635 31.1828 125.627 31.5402C125.627 31.8654 125.627 32.1633 125.623 32.4699C125.611 33.0911 125.554 33.7106 125.452 34.3234C125.359 34.9045 125.176 35.4678 124.912 35.9934C124.648 36.5059 124.306 36.9735 123.896 37.3791C123.488 37.7929 123.015 38.1382 122.497 38.4016C121.972 38.6676 121.409 38.853 120.829 38.9514C120.211 39.0524 119.586 39.1069 118.96 39.1145C118.667 39.1213 118.36 39.1252 118.062 39.1252L116.978 39.1272L8.44486 39.1252Z" fill="black"/>
<path d="M24.7719 20.3008C24.7827 19.4662 25.0044 18.6478 25.4164 17.9218C25.8284 17.1959 26.4174 16.5859 27.1285 16.1488C26.6767 15.5036 26.0808 14.9727 25.388 14.5981C24.6951 14.2236 23.9245 14.0157 23.1373 13.9911C21.4581 13.8148 19.8301 14.9959 18.9744 14.9959C18.1022 14.9959 16.7847 14.0086 15.3659 14.0378C14.4482 14.0674 13.5539 14.3343 12.77 14.8123C11.9861 15.2904 11.3395 15.9633 10.893 16.7656C8.959 20.1141 10.4016 25.0351 12.2542 27.7417C13.1811 29.0671 14.2644 30.5475 15.6818 30.495C17.0689 30.4375 17.5869 29.6105 19.2612 29.6105C20.92 29.6105 21.406 30.495 22.8522 30.4616C24.3406 30.4375 25.2784 29.1304 26.1727 27.7925C26.8387 26.8481 27.3512 25.8044 27.6911 24.7C26.8264 24.3343 26.0885 23.7221 25.5694 22.9398C25.0503 22.1575 24.7729 21.2397 24.7719 20.3008Z" fill="white"/>
<path d="M22.0403 12.2111C22.8518 11.2369 23.2516 9.98469 23.1548 8.72046C21.9149 8.85068 20.7697 9.44324 19.9472 10.3801C19.5451 10.8377 19.2371 11.3702 19.0408 11.9469C18.8446 12.5237 18.7639 13.1335 18.8035 13.7415C19.4236 13.7478 20.0371 13.6134 20.5978 13.3483C21.1585 13.0833 21.6517 12.6944 22.0403 12.2111Z" fill="white"/>
<path d="M35.6553 14.7019V9.57838H33.7783V8.73511H38.4551V9.57837H36.582V14.7019H35.6553Z" fill="white"/>
<path d="M42.7648 13.4861C42.6441 13.8976 42.3825 14.2536 42.0258 14.4918C41.6691 14.7299 41.24 14.8351 40.8136 14.7888C40.517 14.7966 40.2222 14.7398 39.9497 14.6223C39.6772 14.5048 39.4335 14.3293 39.2356 14.1082C39.0377 13.8871 38.8903 13.6255 38.8036 13.3417C38.7169 13.0579 38.693 12.7586 38.7336 12.4646C38.6941 12.1697 38.7184 11.8698 38.8049 11.5851C38.8913 11.3004 39.038 11.0377 39.2348 10.8146C39.4317 10.5915 39.6742 10.4133 39.9459 10.2921C40.2176 10.1709 40.5122 10.1095 40.8097 10.1121C42.0627 10.1121 42.8185 10.9681 42.8185 12.3821V12.6921H39.6388V12.7419C39.6249 12.9072 39.6457 13.0735 39.6998 13.2302C39.7539 13.387 39.8402 13.5307 39.9531 13.6522C40.066 13.7736 40.2031 13.8701 40.3555 13.9355C40.5079 14.0009 40.6722 14.0338 40.838 14.0319C41.0506 14.0574 41.266 14.0192 41.4567 13.9219C41.6475 13.8247 41.8051 13.673 41.9093 13.486L42.7648 13.4861ZM39.6388 12.0349H41.9133C41.9245 11.8838 41.9039 11.732 41.853 11.5893C41.802 11.4465 41.7218 11.3161 41.6174 11.2062C41.513 11.0964 41.3868 11.0095 41.2468 10.9514C41.1069 10.8932 40.9564 10.8649 40.8048 10.8684C40.6511 10.8665 40.4986 10.8953 40.3562 10.9533C40.2139 11.0112 40.0845 11.0971 39.9759 11.2058C39.8672 11.3145 39.7814 11.4439 39.7235 11.5863C39.6656 11.7287 39.6368 11.8812 39.6388 12.0349H39.6388ZM40.2755 9.44604L41.3136 8.02368H42.3556L41.1935 9.44604H40.2755Z" fill="white"/>
<path d="M44.0527 8.44116H44.9414V14.7019H44.0527V8.44116Z" fill="white"/>
<path d="M50.2079 13.4861C50.0872 13.8976 49.8256 14.2536 49.4689 14.4918C49.1122 14.7299 48.6831 14.8351 48.2568 14.7888C47.9601 14.7966 47.6653 14.7398 47.3928 14.6223C47.1203 14.5048 46.8766 14.3293 46.6787 14.1082C46.4808 13.8871 46.3334 13.6255 46.2467 13.3417C46.16 13.0579 46.1361 12.7586 46.1767 12.4646C46.1372 12.1697 46.1615 11.8698 46.248 11.5851C46.3345 11.3004 46.4811 11.0377 46.678 10.8146C46.8748 10.5915 47.1173 10.4133 47.389 10.2921C47.6608 10.1709 47.9553 10.1095 48.2528 10.1121C49.5058 10.1121 50.2616 10.9681 50.2616 12.3821V12.6921H47.0819V12.7419C47.068 12.9072 47.0888 13.0735 47.1429 13.2302C47.197 13.387 47.2833 13.5307 47.3962 13.6522C47.5091 13.7736 47.6462 13.8701 47.7986 13.9355C47.9509 14.0009 48.1153 14.0338 48.2811 14.0319C48.4937 14.0574 48.7091 14.0192 48.8998 13.9219C49.0906 13.8247 49.2481 13.673 49.3524 13.486L50.2079 13.4861ZM47.0819 12.0349H49.3563C49.3675 11.8838 49.347 11.732 49.296 11.5893C49.2451 11.4465 49.1648 11.3161 49.0605 11.2062C48.9561 11.0964 48.8299 11.0095 48.6899 10.9514C48.55 10.8932 48.3994 10.8649 48.2479 10.8684C48.0942 10.8665 47.9417 10.8953 47.7993 10.9533C47.657 11.0112 47.5276 11.0971 47.419 11.2058C47.3103 11.3145 47.2245 11.4439 47.1666 11.5863C47.1087 11.7287 47.0799 11.8812 47.0819 12.0349ZM47.7186 9.44604L48.7567 8.02368H49.7987L48.6367 9.44604H47.7186Z" fill="white"/>
<path d="M54.4034 11.6707C54.3468 11.4372 54.2084 11.2317 54.0133 11.0914C53.8182 10.9511 53.5793 10.8854 53.34 10.906C52.5958 10.906 52.1407 11.4763 52.1407 12.4358C52.1407 13.4119 52.5997 13.9949 53.34 13.9949C53.577 14.0224 53.8159 13.9623 54.0117 13.826C54.2076 13.6896 54.3469 13.4865 54.4034 13.2547H55.2677C55.2105 13.7106 54.9775 14.1262 54.6183 14.4128C54.2591 14.6994 53.8021 14.8344 53.3448 14.7888C53.0438 14.7983 52.7442 14.742 52.4672 14.6236C52.1902 14.5053 51.9424 14.3278 51.7411 14.1037C51.5398 13.8796 51.3899 13.6142 51.3019 13.3261C51.2139 13.038 51.1899 12.7342 51.2316 12.4358C51.192 12.1397 51.2175 11.8385 51.3064 11.5532C51.3952 11.268 51.5453 11.0055 51.746 10.7843C51.9468 10.563 52.1935 10.3882 52.4688 10.2721C52.7441 10.156 53.0414 10.1014 53.34 10.1121C53.801 10.0696 54.2604 10.2088 54.6204 10.4998C54.9804 10.7909 55.2127 11.211 55.2677 11.6707L54.4034 11.6707Z" fill="white"/>
<path d="M56.4473 8.44116H57.3282V10.9226H57.3985C57.5166 10.6633 57.7118 10.4467 57.9575 10.3024C58.2032 10.158 58.4875 10.0929 58.7715 10.116C58.9894 10.1041 59.2073 10.1405 59.4096 10.2225C59.6119 10.3046 59.7936 10.4303 59.9417 10.5906C60.0898 10.7509 60.2007 10.942 60.2665 11.1501C60.3323 11.3583 60.3513 11.5783 60.3223 11.7947V14.7019H59.4326V12.0139C59.4326 11.2947 59.0976 10.9304 58.4697 10.9304C58.317 10.9179 58.1634 10.9389 58.0196 10.9919C57.8758 11.045 57.7453 11.1288 57.6374 11.2376C57.5294 11.3463 57.4464 11.4773 57.3944 11.6215C57.3423 11.7656 57.3224 11.9194 57.3359 12.072V14.7019H56.4473L56.4473 8.44116Z" fill="white"/>
<path d="M61.4395 13.4285C61.4395 12.6179 62.043 12.1506 63.1143 12.0842L64.334 12.0139V11.6252C64.334 11.1497 64.0195 10.8811 63.4121 10.8811C62.916 10.8811 62.5723 11.0632 62.4736 11.3816H61.6133C61.7041 10.6081 62.4316 10.1121 63.4531 10.1121C64.582 10.1121 65.2183 10.6741 65.2183 11.6252V14.7019H64.3633V14.0691H64.293C64.1503 14.2961 63.9499 14.4811 63.7122 14.6053C63.4746 14.7296 63.2083 14.7885 62.9405 14.7761C62.7514 14.7958 62.5604 14.7756 62.3796 14.7169C62.1988 14.6582 62.0324 14.5623 61.891 14.4353C61.7495 14.3083 61.6363 14.1531 61.5585 13.9797C61.4808 13.8063 61.4402 13.6185 61.4395 13.4285ZM64.334 13.0437V12.6672L63.2344 12.7376C62.6143 12.7791 62.333 12.99 62.333 13.387C62.333 13.7922 62.6846 14.0281 63.168 14.0281C63.3096 14.0424 63.4527 14.0281 63.5887 13.986C63.7247 13.9439 63.8509 13.8749 63.9597 13.7831C64.0685 13.6912 64.1577 13.5784 64.222 13.4514C64.2863 13.3244 64.3244 13.1857 64.334 13.0437L64.334 13.0437Z" fill="white"/>
<path d="M66.6099 10.1989H67.4653V10.8894H67.5317C67.6275 10.6497 67.7968 10.4465 68.0152 10.3091C68.2337 10.1716 68.49 10.1069 68.7476 10.1242C68.8807 10.1224 69.0136 10.1349 69.144 10.1613V11.0383C68.981 11.0035 68.8147 10.9855 68.6479 10.9846C68.5014 10.9715 68.3537 10.9891 68.2143 11.0364C68.075 11.0837 67.9471 11.1597 67.8388 11.2594C67.7306 11.3591 67.6444 11.4803 67.5858 11.6153C67.5272 11.7503 67.4975 11.896 67.4985 12.0432V14.7019H66.6099L66.6099 10.1989Z" fill="white"/>
<path d="M69.9614 15.1526H70.8706C70.9458 15.4792 71.3218 15.6902 71.9214 15.6902C72.6616 15.6902 73.1001 15.3386 73.1001 14.7434V13.8791H73.0337C72.8943 14.121 72.6907 14.3197 72.4455 14.4532C72.2003 14.5867 71.9229 14.6498 71.644 14.6355C70.4946 14.6355 69.7837 13.7468 69.7837 12.3986C69.7837 11.0256 70.5024 10.1242 71.6528 10.1242C71.9387 10.1143 72.2217 10.1831 72.4711 10.3231C72.7205 10.4631 72.9266 10.669 73.0669 10.9182H73.1372V10.1989H73.9888V14.7389C73.9888 15.7687 73.1821 16.4221 71.9087 16.4221C70.7837 16.4221 70.0562 15.9177 69.9614 15.1526ZM73.1167 12.3943C73.1167 11.4973 72.6528 10.9226 71.896 10.9226C71.1314 10.9226 70.7017 11.4973 70.7017 12.3943C70.7017 13.2917 71.1314 13.8664 71.896 13.8664C72.6577 13.8664 73.1167 13.2961 73.1167 12.3942V12.3943Z" fill="white"/>
<path d="M79.2126 13.486C79.0918 13.8976 78.8302 14.2536 78.4735 14.4917C78.1168 14.7299 77.6878 14.835 77.2614 14.7888C76.9647 14.7966 76.6699 14.7398 76.3974 14.6223C76.1249 14.5047 75.8812 14.3293 75.6833 14.1082C75.4854 13.887 75.338 13.6255 75.2513 13.3416C75.1646 13.0578 75.1407 12.7585 75.1813 12.4646C75.1418 12.1697 75.1661 11.8697 75.2526 11.5851C75.3391 11.3004 75.4857 11.0376 75.6826 10.8146C75.8795 10.5915 76.122 10.4133 76.3937 10.2921C76.6654 10.1709 76.96 10.1095 77.2575 10.112C78.5104 10.112 79.2663 10.968 79.2663 12.382V12.6921H76.0866V12.7419C76.0727 12.9071 76.0934 13.0735 76.1476 13.2302C76.2017 13.3869 76.288 13.5307 76.4009 13.6521C76.5138 13.7736 76.6508 13.8701 76.8032 13.9355C76.9556 14.0009 77.12 14.0337 77.2858 14.0319C77.4984 14.0574 77.7138 14.0191 77.9045 13.9219C78.0953 13.8247 78.2528 13.673 78.3571 13.486L79.2126 13.486ZM76.0866 12.0349H78.361C78.3722 11.8837 78.3516 11.7319 78.3007 11.5892C78.2497 11.4465 78.1695 11.316 78.0651 11.2062C77.9607 11.0963 77.8345 11.0095 77.6946 10.9513C77.5546 10.8932 77.4041 10.8649 77.2526 10.8684C77.0989 10.8664 76.9463 10.8953 76.804 10.9532C76.6616 11.0112 76.5323 11.0971 76.4236 11.2058C76.315 11.3145 76.2291 11.4438 76.1713 11.5862C76.1134 11.7286 76.0846 11.8812 76.0866 12.0349H76.0866Z" fill="white"/>
<path d="M80.4595 10.1989H81.315V10.8894H81.3814C81.4772 10.6497 81.6464 10.4465 81.8649 10.3091C82.0833 10.1716 82.3397 10.1069 82.5972 10.1242C82.7303 10.1224 82.8632 10.1349 82.9937 10.1613V11.0383C82.8306 11.0035 82.6644 10.9855 82.4976 10.9846C82.351 10.9715 82.2033 10.9891 82.064 11.0364C81.9246 11.0837 81.7967 11.1597 81.6885 11.2594C81.5802 11.3591 81.494 11.4803 81.4354 11.6153C81.3768 11.7503 81.3471 11.896 81.3481 12.0432V14.7019H80.4595V10.1989Z" fill="white"/>
<path d="M86.1958 12.4485C86.1958 11.0256 86.9273 10.1243 88.0649 10.1243C88.3464 10.1113 88.6257 10.1787 88.8702 10.3186C89.1147 10.4585 89.3144 10.6651 89.4458 10.9143H89.5122V8.44116H90.4009V14.7019H89.5493V13.9905H89.479C89.3374 14.238 89.1308 14.442 88.8815 14.5805C88.6323 14.719 88.3499 14.7866 88.0649 14.7761C86.9194 14.7761 86.1958 13.8748 86.1958 12.4485ZM87.1138 12.4485C87.1138 13.4036 87.564 13.9783 88.3169 13.9783C89.0659 13.9783 89.5288 13.3953 89.5288 12.4524C89.5288 11.5139 89.0611 10.9226 88.3169 10.9226C87.5689 10.9226 87.1138 11.5012 87.1138 12.4485H87.1138Z" fill="white"/>
<path d="M91.6021 13.4285C91.6021 12.6179 92.2056 12.1506 93.2769 12.0842L94.4966 12.0139V11.6252C94.4966 11.1497 94.1821 10.8811 93.5747 10.8811C93.0786 10.8811 92.7349 11.0632 92.6362 11.3816H91.7759C91.8667 10.6081 92.5942 10.1121 93.6157 10.1121C94.7446 10.1121 95.3814 10.6741 95.3814 11.6252V14.7019H94.5259V14.0691H94.4556C94.3129 14.2961 94.1125 14.4811 93.8748 14.6053C93.6372 14.7296 93.3709 14.7885 93.103 14.7761C92.914 14.7958 92.7229 14.7756 92.5422 14.7169C92.3614 14.6582 92.195 14.5623 92.0536 14.4353C91.9121 14.3083 91.7989 14.1531 91.7211 13.9797C91.6434 13.8063 91.6028 13.6185 91.6021 13.4285ZM94.4966 13.0437V12.6672L93.397 12.7375C92.7769 12.779 92.4956 12.99 92.4956 13.387C92.4956 13.7922 92.8472 14.0281 93.3306 14.0281C93.4723 14.0424 93.6153 14.0281 93.7513 13.986C93.8873 13.9439 94.0135 13.8749 94.1223 13.7831C94.2311 13.6912 94.3203 13.5784 94.3846 13.4514C94.4489 13.3244 94.487 13.1857 94.4966 13.0437V13.0437Z" fill="white"/>
<path d="M96.7729 10.199H97.6284V10.9143H97.6948C97.8075 10.6574 97.9975 10.4421 98.2384 10.2983C98.4792 10.1544 98.759 10.0894 99.0386 10.1121C99.2577 10.0956 99.4777 10.1287 99.6823 10.2088C99.8869 10.2889 100.071 10.414 100.221 10.5748C100.37 10.7356 100.482 10.9281 100.547 11.1379C100.612 11.3477 100.629 11.5695 100.597 11.7869V14.7019H99.7085V12.0101C99.7085 11.2864 99.394 10.9266 98.7368 10.9266C98.5881 10.9196 98.4396 10.9449 98.3015 11.0008C98.1634 11.0566 98.0391 11.1416 97.937 11.25C97.8348 11.3584 97.7574 11.4876 97.7098 11.6287C97.6623 11.7698 97.6459 11.9196 97.6616 12.0677V14.7019H96.7729V10.199Z" fill="white"/>
<path d="M103.618 10.1121C104.63 10.1121 105.292 10.5833 105.379 11.3772H104.527C104.445 11.0466 104.122 10.8357 103.618 10.8357C103.122 10.8357 102.745 11.0711 102.745 11.4226C102.745 11.6916 102.972 11.8611 103.46 11.9729L104.208 12.1462C105.065 12.345 105.466 12.7131 105.466 13.3748C105.466 14.2224 104.676 14.7888 103.601 14.7888C102.53 14.7888 101.832 14.3049 101.752 13.5071H102.642C102.719 13.697 102.857 13.8556 103.035 13.9575C103.212 14.0594 103.419 14.0987 103.622 14.0691C104.175 14.0691 104.569 13.8211 104.569 13.4612C104.569 13.1926 104.358 13.0188 103.907 12.9114L103.122 12.7292C102.265 12.5266 101.869 12.1423 101.869 11.4724C101.869 10.6741 102.6 10.1121 103.618 10.1121Z" fill="white"/>
<path d="M35.1982 18.0671H37.0576V30.4856H35.1982V18.0671Z" fill="white"/>
<path d="M39.2979 22.6111L40.3135 18.0671H42.1201L40.8897 22.6111H39.2979Z" fill="white"/>
<path d="M49.1465 27.1291H44.4131L43.2764 30.4856H41.2715L45.7549 18.0671H47.8379L52.3213 30.4856H50.2822L49.1465 27.1291ZM44.9033 25.5803H48.6553L46.8057 20.1326H46.754L44.9033 25.5803Z" fill="white"/>
<path d="M62.003 25.9592C62.003 28.7727 60.4971 30.5803 58.2246 30.5803C57.649 30.6104 57.0765 30.4778 56.5727 30.1977C56.0689 29.9175 55.6542 29.5012 55.376 28.9963H55.333V33.4807H53.4746V21.4314H55.2734V22.9372H55.3076C55.5986 22.4348 56.0203 22.0206 56.5279 21.7387C57.0356 21.4569 57.6101 21.3179 58.1904 21.3366C60.4883 21.3367 62.003 23.153 62.003 25.9592ZM60.0928 25.9592C60.0928 24.1257 59.1455 22.9206 57.7002 22.9206C56.2803 22.9206 55.3252 24.1511 55.3252 25.9592C55.3252 27.7834 56.2803 29.0051 57.7002 29.0051C59.1455 29.0051 60.0928 27.8088 60.0928 25.9592Z" fill="white"/>
<path d="M71.9673 25.9592C71.9673 28.7727 70.4614 30.5803 68.189 30.5803C67.6133 30.6104 67.0408 30.4778 66.537 30.1977C66.0332 29.9175 65.6185 29.5012 65.3403 28.9963H65.2973V33.4807H63.4395V21.4314H65.2378V22.9372H65.272C65.563 22.4348 65.9847 22.0206 66.4923 21.7387C66.9999 21.4569 67.5745 21.3179 68.1548 21.3366C70.4526 21.3367 71.9673 23.153 71.9673 25.9592ZM70.0571 25.9592C70.0571 24.1257 69.1099 22.9206 67.6646 22.9206C66.2446 22.9206 65.2896 24.1511 65.2896 25.9592C65.2896 27.7834 66.2446 29.0051 67.6646 29.0051C69.1099 29.0051 70.0571 27.8088 70.0571 25.9592Z" fill="white"/>
<path d="M78.5532 27.0256C78.6909 28.2571 79.8872 29.0656 81.522 29.0656C83.0884 29.0656 84.2153 28.257 84.2153 27.1467C84.2153 26.1828 83.5357 25.6057 81.9263 25.2102L80.3169 24.822C78.0366 24.2712 76.978 23.2048 76.978 21.4744C76.978 19.3318 78.8452 17.8601 81.4966 17.8601C84.1206 17.8601 85.9194 19.3318 85.98 21.4744H84.104C83.9917 20.2351 82.9673 19.4871 81.4702 19.4871C79.9731 19.4871 78.9487 20.2439 78.9487 21.3455C78.9487 22.2234 79.603 22.74 81.2036 23.1355L82.5718 23.4714C85.1196 24.0739 86.1782 25.0979 86.1782 26.9143C86.1782 29.2375 84.3276 30.6926 81.3843 30.6926C78.6304 30.6926 76.771 29.2717 76.6509 27.0256L78.5532 27.0256Z" fill="white"/>
<path d="M90.19 19.2888V21.4314H91.9117V22.9031H90.19V27.8948C90.19 28.6702 90.5347 29.0315 91.2915 29.0315C91.4959 29.0279 91.7 29.0136 91.9029 28.9885V30.4514C91.5626 30.515 91.2167 30.5438 90.8706 30.5373C89.0376 30.5373 88.3228 29.8488 88.3228 28.093V22.9031H87.0063V21.4314H88.3228V19.2888H90.19Z" fill="white"/>
<path d="M92.9077 25.9592C92.9077 23.1101 94.5854 21.3201 97.2017 21.3201C99.8267 21.3201 101.497 23.1101 101.497 25.9592C101.497 28.8157 99.8355 30.5979 97.2017 30.5979C94.5688 30.5979 92.9077 28.8157 92.9077 25.9592ZM99.603 25.9592C99.603 24.0046 98.7075 22.8513 97.2017 22.8513C95.6958 22.8513 94.8013 24.0134 94.8013 25.9592C94.8013 27.9211 95.6958 29.0657 97.2017 29.0657C98.7075 29.0657 99.603 27.9211 99.603 25.9592H99.603Z" fill="white"/>
<path d="M103.029 21.4314H104.801V22.9724H104.844C104.964 22.4911 105.246 22.0658 105.643 21.7679C106.039 21.47 106.526 21.3177 107.022 21.3367C107.236 21.3359 107.45 21.3592 107.659 21.406V23.1442C107.388 23.0616 107.106 23.0237 106.824 23.0319C106.554 23.021 106.285 23.0686 106.035 23.1716C105.785 23.2745 105.56 23.4303 105.376 23.6282C105.192 23.8262 105.053 24.0616 104.969 24.3183C104.884 24.575 104.857 24.8469 104.887 25.1154V30.4856H103.029L103.029 21.4314Z" fill="white"/>
<path d="M116.226 27.8264C115.976 29.47 114.375 30.5979 112.328 30.5979C109.694 30.5979 108.059 28.8332 108.059 26.0022C108.059 23.1619 109.703 21.3201 112.25 21.3201C114.754 21.3201 116.33 23.0408 116.33 25.7864V26.4231H109.935V26.5354C109.906 26.8686 109.947 27.2043 110.057 27.5201C110.168 27.8359 110.344 28.1247 110.574 28.3673C110.804 28.6098 111.084 28.8006 111.394 28.9269C111.703 29.0532 112.036 29.1122 112.371 29.0998C112.81 29.141 113.25 29.0393 113.627 28.8098C114.004 28.5804 114.296 28.2355 114.461 27.8264L116.226 27.8264ZM109.944 25.1242H114.47C114.487 24.8246 114.442 24.5248 114.337 24.2435C114.232 23.9622 114.071 23.7057 113.862 23.4898C113.654 23.274 113.403 23.1036 113.125 22.9894C112.848 22.8751 112.55 22.8195 112.25 22.8259C111.947 22.8241 111.647 22.8823 111.367 22.9971C111.087 23.1119 110.832 23.281 110.618 23.4946C110.403 23.7083 110.233 23.9623 110.118 24.242C110.002 24.5217 109.943 24.8216 109.944 25.1242Z" fill="white"/>
</svg>
