<svg width="134" height="40" viewBox="0 0 134 40" fill="none" xmlns="http://www.w3.org/2000/svg">
<g clip-path="url(#clip0_26_5065)">
<path d="M123.936 0H9.40807C9.04743 0 8.68679 0 8.32615 0C8.02822 0 7.7303 0 7.4167 0.0156801C6.75813 0.0313602 6.09957 0.0784006 5.441 0.188162C4.78244 0.297922 4.17091 0.501764 3.55939 0.799686C2.96354 1.09761 2.43042 1.48961 1.96002 1.96002C1.48961 2.43042 1.09761 2.96354 0.799686 3.55939C0.486084 4.15523 0.297922 4.78244 0.188161 5.441C0.0627205 6.09957 0.0313602 6.75813 0.0156801 7.4167C0 7.7303 0 8.02822 0 8.34183C0 8.70247 0 9.06311 0 9.42375V30.5919C0 30.9526 0 31.3132 0 31.6739C0 31.9875 0 32.2697 0.0156801 32.5833C0.0313602 33.2419 0.0784006 33.9004 0.188161 34.559C0.297922 35.2176 0.501764 35.8448 0.799686 36.4406C1.09761 37.0365 1.48961 37.5696 1.96002 38.04C2.43042 38.5104 2.96354 38.9024 3.55939 39.2003C4.15523 39.5139 4.78244 39.7021 5.441 39.8275C6.09957 39.953 6.75813 39.9843 7.4167 40C7.71462 40 8.02822 40.0157 8.32615 40.0157C8.68679 40.0157 9.04743 40.0157 9.40807 40.0157H123.936C124.296 40.0157 124.657 40.0157 125.002 40.0157C125.3 40.0157 125.613 40.0157 125.911 40C126.57 39.9843 127.229 39.9373 127.887 39.8275C128.546 39.7021 129.157 39.5139 129.769 39.2003C130.365 38.9024 130.898 38.5104 131.368 38.04C131.838 37.5696 132.23 37.0365 132.528 36.4406C132.826 35.8448 133.03 35.2176 133.14 34.559C133.265 33.9004 133.297 33.2419 133.328 32.5833C133.328 32.2697 133.328 31.9875 133.328 31.6739C133.328 31.3132 133.328 30.9526 133.328 30.5919V9.40808C133.328 9.04743 133.328 8.68679 133.328 8.32615C133.328 8.02822 133.328 7.71462 133.328 7.4167C133.312 6.75813 133.265 6.09957 133.14 5.441C133.03 4.78244 132.826 4.15523 132.528 3.55939C132.23 2.96354 131.838 2.43042 131.368 1.96002C130.898 1.48961 130.365 1.09761 129.769 0.799686C129.157 0.501764 128.546 0.297922 127.887 0.188162C127.244 0.0627205 126.57 0.0313602 125.911 0.0156801C125.613 0.0156801 125.3 0 125.002 0C124.657 0 124.296 0 123.936 0Z" fill="#C0C1C1"/>
<path d="M8.34191 39.1376C8.04399 39.1376 7.74607 39.1376 7.44815 39.1219C6.89934 39.1062 6.24078 39.0748 5.59789 38.9651C5.00205 38.8553 4.45324 38.6828 3.96716 38.432C3.44971 38.1654 2.99499 37.8361 2.58731 37.4284C2.17962 37.0207 1.85034 36.566 1.58378 36.0486C1.3329 35.5468 1.16042 35.0137 1.05066 34.4178C0.925214 33.7593 0.893854 33.085 0.893854 32.5676C0.893854 32.3637 0.878174 31.6738 0.878174 31.6738V8.34179C0.878174 8.34179 0.893854 7.65187 0.893854 7.4637C0.909534 6.94626 0.940894 6.27201 1.05066 5.61345C1.16042 5.00192 1.3329 4.4688 1.58378 3.96704C1.85034 3.44959 2.17962 2.97919 2.58731 2.58719C2.99499 2.1795 3.46539 1.83454 3.96716 1.58366C4.46892 1.33278 5.00205 1.14461 5.59789 1.05053C6.25646 0.925092 6.9307 0.909412 7.44815 0.893732L8.34191 0.878052H125.002L125.896 0.893732C126.398 0.909412 127.072 0.940772 127.73 1.05053C128.326 1.16029 128.859 1.33278 129.377 1.58366C129.879 1.85022 130.349 2.1795 130.757 2.58719C131.164 2.99487 131.494 3.44959 131.76 3.96704C132.011 4.4688 132.184 5.00192 132.293 5.59777C132.403 6.22497 132.45 6.86786 132.466 7.4637C132.466 7.74595 132.466 8.04387 132.466 8.34179C132.466 8.71811 132.466 9.06308 132.466 9.42372V30.5919C132.466 30.9525 132.466 31.2975 132.466 31.6581C132.466 31.9717 132.466 32.2697 132.466 32.5833C132.45 33.1634 132.403 33.8063 132.293 34.4178C132.184 35.0294 132.011 35.5625 131.76 36.0643C131.494 36.5817 131.149 37.0364 130.757 37.4284C130.349 37.8361 129.879 38.1811 129.377 38.432C128.859 38.6985 128.342 38.871 127.73 38.9808C127.103 39.0905 126.445 39.1219 125.88 39.1376C125.598 39.1376 125.284 39.1532 125.002 39.1532H123.936L8.34191 39.1376Z" fill="#231815"/>
<path d="M27.0326 7.27563H15.8997C10.6625 7.27563 8.73389 9.18861 8.73389 14.4415V25.5743C8.73389 30.8115 10.6469 32.7402 15.8997 32.7402H27.0326C32.2698 32.7402 34.1984 30.8272 34.1984 25.5743V14.4415C34.1827 9.18861 32.2698 7.27563 27.0326 7.27563Z" fill="#C8102E"/>
<path d="M49.4551 27.0326H44.8295L43.7005 30.1216H41.6621L46.1937 18.5653H48.1223L52.7636 30.1216H50.6311L49.4551 27.0326ZM45.4097 25.4646H48.8593L47.6206 22.1561C47.4481 21.7013 47.2756 21.1996 47.1188 20.6351C46.962 21.1212 46.8052 21.6229 46.6327 22.1404L45.4097 25.4646Z" fill="white"/>
<path d="M53.6731 23.63C53.6731 22.9871 53.6574 22.2972 53.6104 21.5289H55.4606C55.5233 21.8895 55.5704 22.2502 55.6017 22.6265C56.3701 21.7954 57.2481 21.3721 58.236 21.3721C58.8162 21.3721 59.3493 21.5132 59.8354 21.8111C60.3214 22.0934 60.7135 22.5638 61.0271 23.191C61.325 23.8182 61.4818 24.6179 61.4818 25.5743C61.4818 26.5779 61.3093 27.4403 60.9643 28.1459C60.6194 28.8515 60.149 29.4003 59.5218 29.7609C58.9102 30.1216 58.1889 30.3097 57.3893 30.3097C56.8091 30.3097 56.2289 30.2157 55.6644 30.0118V33.5555L53.6888 33.728L53.6731 23.63ZM58.8475 28.0361C59.2552 27.503 59.4434 26.7033 59.4434 25.6684C59.4434 24.7119 59.2709 24.0063 58.9416 23.5673C58.6123 23.1282 58.1733 22.9244 57.6088 22.9244C57.2325 22.9244 56.8718 23.0185 56.5425 23.191C56.2133 23.3791 55.9153 23.6143 55.6174 23.9123V28.5222C55.8213 28.6163 56.0408 28.6947 56.3073 28.7574C56.5739 28.8201 56.8248 28.8358 57.0757 28.8358C57.8597 28.8358 58.4555 28.5692 58.8475 28.0361Z" fill="white"/>
<path d="M62.7204 23.63C62.7204 22.9871 62.7048 22.2972 62.6577 21.5289H64.508C64.5707 21.8895 64.6177 22.2502 64.6491 22.6265C65.4174 21.7954 66.2955 21.3721 67.2834 21.3721C67.8635 21.3721 68.3966 21.5132 68.8827 21.8111C69.3688 22.0934 69.7608 22.5638 70.0744 23.191C70.3723 23.8182 70.5291 24.6179 70.5291 25.5743C70.5291 26.5779 70.3567 27.4403 70.0117 28.1459C69.6667 28.8515 69.1963 29.4003 68.5691 29.7609C67.9576 30.1216 67.2363 30.3097 66.4366 30.3097C65.8565 30.3097 65.2763 30.2157 64.7118 30.0118V33.5555L62.7361 33.728L62.7204 23.63ZM67.9106 28.0361C68.3182 27.503 68.5064 26.7033 68.5064 25.6684C68.5064 24.7119 68.3339 24.0063 68.0046 23.5673C67.6754 23.1282 67.2363 22.9244 66.6718 22.9244C66.2955 22.9244 65.9349 23.0185 65.6056 23.191C65.2763 23.3791 64.9784 23.6143 64.6804 23.9123V28.5222C64.8843 28.6163 65.1038 28.6947 65.3704 28.7574C65.6369 28.8201 65.8878 28.8358 66.1387 28.8358C66.9227 28.8358 67.5029 28.5692 67.9106 28.0361Z" fill="white"/>
<path d="M74.2298 29.5884C73.383 29.118 72.7245 28.4438 72.2698 27.5657C71.815 26.6876 71.5798 25.6527 71.5798 24.461C71.5798 23.1596 71.8464 22.062 72.3638 21.1525C72.897 20.2431 73.6026 19.5688 74.512 19.1141C75.4215 18.6594 76.4407 18.4242 77.5696 18.4242C78.2282 18.4242 78.8711 18.5026 79.4669 18.6437C80.0785 18.7848 80.6273 18.9887 81.1604 19.2396L80.6586 20.7605C79.6081 20.2588 78.6045 20.0079 77.6637 20.0079C76.864 20.0079 76.1584 20.1804 75.5469 20.5253C74.9354 20.8703 74.4807 21.3721 74.1357 22.0306C73.8064 22.6892 73.6339 23.5046 73.6339 24.4454C73.6339 25.2764 73.7594 25.9977 74.0259 26.6406C74.2925 27.2835 74.6845 27.7852 75.249 28.1616C75.7978 28.5379 76.5034 28.726 77.3501 28.726C77.7264 28.726 78.1184 28.6947 78.4948 28.632C78.8711 28.5692 79.2317 28.4752 79.5767 28.3497V26.0134H76.9111V24.461H81.5054V29.3219C80.8468 29.6355 80.1569 29.8707 79.4199 30.0275C78.6986 30.2 77.9773 30.2784 77.256 30.2784C76.0957 30.294 75.0922 30.0588 74.2298 29.5884Z" fill="white"/>
<path d="M88.5926 30.1372C88.5299 29.808 88.4829 29.416 88.4515 28.9926C88.1536 29.3532 87.7459 29.6668 87.2598 29.9177C86.7738 30.1686 86.225 30.294 85.6134 30.294C85.1117 30.294 84.6726 30.2 84.2649 29.9961C83.8573 29.808 83.528 29.51 83.2928 29.118C83.0576 28.726 82.9321 28.2556 82.9321 27.6911C82.9321 26.8601 83.23 26.1859 83.8416 25.6998C84.4374 25.198 85.4409 24.9471 86.8522 24.9471C87.3853 24.9471 87.9027 24.9785 88.4202 25.0569V24.8844C88.4202 24.1161 88.2634 23.583 87.9341 23.2694C87.6048 22.9557 87.1501 22.7989 86.5386 22.7989C86.1152 22.7989 85.6761 22.8617 85.1901 22.9871C84.704 23.1126 84.2963 23.2537 83.9357 23.4262L83.622 21.9836C83.967 21.8268 84.4374 21.67 85.0176 21.5445C85.5977 21.4191 86.1936 21.3407 86.8365 21.3407C87.5734 21.3407 88.2163 21.4505 88.7338 21.6857C89.2512 21.9052 89.6589 22.2972 89.9568 22.846C90.2547 23.3948 90.3959 24.1318 90.3959 25.0726V28.4908C90.3959 28.8515 90.4115 29.3846 90.4586 30.1059H88.5926V30.1372ZM87.4166 28.5379C87.8243 28.334 88.1693 28.0988 88.4202 27.8009V26.2015C87.887 26.1388 87.448 26.1075 87.103 26.1075C86.2877 26.1075 85.7232 26.2329 85.4096 26.4995C85.096 26.766 84.9392 27.111 84.9392 27.5657C84.9392 27.9891 85.0489 28.3027 85.2841 28.5065C85.5037 28.7104 85.8173 28.8201 86.2093 28.8201C86.6013 28.8358 87.009 28.726 87.4166 28.5379Z" fill="white"/>
<path d="M92.105 28.0675V17.8911L94.065 17.7343V27.7225C94.065 28.0831 94.1277 28.3497 94.2531 28.5065C94.3786 28.6633 94.5824 28.7417 94.849 28.7417C94.9744 28.7417 95.1469 28.7103 95.3664 28.6476L95.6016 30.0588C95.4135 30.1372 95.194 30.2 94.9117 30.2313C94.6452 30.2784 94.3943 30.294 94.1434 30.294C92.7949 30.294 92.105 29.5571 92.105 28.0675Z" fill="white"/>
<path d="M97.0129 28.0675V17.8911L98.973 17.7343V27.7225C98.973 28.0831 99.0357 28.3497 99.1611 28.5065C99.2866 28.6633 99.4904 28.7417 99.757 28.7417C99.8824 28.7417 100.055 28.7103 100.274 28.6476L100.51 30.0588C100.321 30.1372 100.102 30.2 99.8197 30.2313C99.5531 30.2784 99.3022 30.294 99.0514 30.294C97.7029 30.294 97.0129 29.5571 97.0129 28.0675Z" fill="white"/>
<path d="M108.679 26.076H103.05C103.144 27.8793 104.006 28.773 105.621 28.773C106.029 28.773 106.437 28.726 106.86 28.6319C107.283 28.5378 107.691 28.3967 108.083 28.2399L108.506 29.5884C107.55 30.0588 106.468 30.294 105.261 30.294C104.351 30.294 103.567 30.1215 102.94 29.7766C102.313 29.4316 101.842 28.9298 101.529 28.2869C101.215 27.6441 101.058 26.86 101.058 25.9349C101.058 24.9784 101.231 24.1631 101.56 23.4731C101.889 22.7832 102.36 22.2658 102.956 21.9051C103.551 21.5445 104.241 21.3563 105.025 21.3563C105.841 21.3563 106.515 21.5445 107.064 21.9208C107.613 22.2971 108.02 22.8146 108.271 23.4418C108.538 24.069 108.663 24.7746 108.663 25.5429L108.679 26.076ZM106.75 24.8216C106.719 24.1317 106.546 23.6143 106.233 23.285C105.919 22.94 105.512 22.7675 104.994 22.7675C104.492 22.7675 104.085 22.94 103.74 23.285C103.41 23.6299 103.191 24.1474 103.097 24.8216H106.75Z" fill="white"/>
<path d="M110.263 23.6927C110.263 23.2223 110.247 22.501 110.2 21.5289H112.05C112.082 21.7641 112.113 22.062 112.144 22.3913C112.176 22.7206 112.191 22.9871 112.207 23.2066C112.442 22.8303 112.662 22.5167 112.881 22.2502C113.101 21.9836 113.367 21.7798 113.65 21.623C113.948 21.4661 114.277 21.3721 114.653 21.3721C114.951 21.3721 115.218 21.4034 115.437 21.4661L115.186 23.1753C114.998 23.1126 114.779 23.0812 114.543 23.0812C114.073 23.0812 113.681 23.2066 113.336 23.4418C112.991 23.677 112.615 24.0691 112.223 24.6179V30.1529H110.263V23.6927Z" fill="white"/>
<path d="M116.613 33.6496C116.331 33.6026 116.096 33.5398 115.907 33.4771L116.268 32.0345C116.394 32.0659 116.566 32.1129 116.77 32.1443C116.974 32.1757 117.162 32.1913 117.35 32.1913C118.228 32.1913 118.871 31.6269 119.31 30.5136L119.435 30.2L116.268 21.5132H118.385L119.984 26.3583C120.251 27.1894 120.408 27.8166 120.486 28.2713C120.643 27.6441 120.815 27.0326 121.019 26.4054L122.634 21.5132H124.626L121.458 30.2313C121.16 31.0624 120.831 31.7209 120.486 32.2227C120.141 32.7245 119.733 33.1008 119.263 33.3517C118.793 33.6026 118.228 33.7123 117.554 33.7123C117.209 33.728 116.911 33.7123 116.613 33.6496Z" fill="white"/>
<path d="M13.7829 20.0079H14.4571V23.3321H13.7829V21.9836H12.2619V23.3321H11.5876V20.0079H12.2619V21.3564H13.7829V20.0079ZM17.5775 21.9052C17.5775 22.4383 17.3109 22.7362 16.8248 22.7362C16.3387 22.7362 16.0565 22.4383 16.0565 21.8895V20.0079H15.3822V21.9052C15.3822 22.846 15.8997 23.3791 16.8091 23.3791C17.7186 23.3791 18.2517 22.8303 18.2517 21.8738V19.9922H17.5775V21.9052ZM25.3862 22.2972L24.6335 20.0079H24.0847L23.3321 22.2972L22.5951 20.0079H21.8738L23.0341 23.3321H23.5986L24.3513 21.1525L25.1039 23.3321H25.6684L26.8287 20.0079H26.1231L25.3862 22.2972ZM28.0204 21.9052H29.2435V21.2936H28.0204V20.6194H29.808V20.0079H27.3619V23.3321H29.8707V22.7205H28.0204V21.9052ZM30.686 23.3321H31.3446V20.0079H30.686V23.3321ZM19.5845 22.6421L19.2866 23.3321H18.5967L20.0549 20.0079H20.6508L22.109 23.3321H21.4034L21.1055 22.6421H19.5845ZM19.8354 22.0306H20.8546L20.3372 20.8389L19.8354 22.0306Z" fill="white"/>
<path d="M21.4661 15.7742C19.1297 15.7742 17.2324 13.8769 17.2324 11.5405H17.8283C17.8283 13.5476 19.459 15.1783 21.4661 15.1783C23.4731 15.1783 25.1038 13.5476 25.1038 11.5405H25.6997C25.6997 13.8612 23.8024 15.7742 21.4661 15.7742Z" fill="white"/>
<path d="M42.4304 7.32263H44.4218C45.0804 7.32263 45.6292 7.43239 46.0996 7.63623C46.57 7.84008 46.9149 8.16936 47.1658 8.59272C47.4167 9.01609 47.5421 9.53353 47.5421 10.1294C47.5421 10.7566 47.4167 11.3054 47.1501 11.7915C46.8993 12.2776 46.5229 12.6539 46.0368 12.9361C45.5508 13.2184 44.9863 13.3438 44.3277 13.3438H42.4304V7.32263ZM44.265 12.5441C44.7354 12.5441 45.1431 12.45 45.4724 12.2462C45.8016 12.0423 46.0525 11.7601 46.2093 11.4151C46.3661 11.0545 46.4602 10.6468 46.4602 10.1921C46.4602 9.51785 46.2877 9.01609 45.9271 8.67112C45.5664 8.32616 45.049 8.15368 44.3434 8.15368H43.4967V12.5441H44.265Z" fill="white"/>
<path d="M48.7024 7.32265H52.2618L52.1677 8.18505H49.753V9.84715H52.0266V10.6468H49.753V12.4971H52.2931L52.1991 13.3595H48.7024V7.32265ZM49.753 6.86792L50.8349 5.58215L51.9325 5.67623L50.3958 6.94632L49.753 6.86792Z" fill="white"/>
<path d="M54.269 13.0929C53.8299 12.8577 53.485 12.5127 53.2497 12.058C53.0145 11.6033 52.9048 11.0545 52.9048 10.4273C52.9048 9.78439 53.0302 9.2199 53.2654 8.73382C53.5163 8.24774 53.8613 7.88709 54.3003 7.63621C54.7394 7.38533 55.2568 7.25989 55.8527 7.25989C56.1819 7.25989 56.4955 7.29125 56.7935 7.36965C57.0914 7.44805 57.3736 7.55781 57.6088 7.68325L57.3423 8.46726C56.8405 8.21638 56.3701 8.07525 55.8997 8.07525C55.492 8.07525 55.1314 8.16933 54.8491 8.3575C54.5669 8.54566 54.3474 8.81222 54.1906 9.15718C54.0494 9.50215 53.971 9.90983 53.971 10.3802C53.971 10.8193 54.0494 11.2113 54.1906 11.5562C54.3317 11.8855 54.5512 12.1521 54.8491 12.3559C55.147 12.5441 55.5234 12.6382 55.9781 12.6382C56.4485 12.6382 56.9503 12.5284 57.452 12.2932L57.6872 13.0615C57.4363 13.187 57.1541 13.2811 56.8719 13.3595C56.5739 13.4379 56.2447 13.4692 55.884 13.4692C55.2411 13.4379 54.708 13.3281 54.269 13.0929Z" fill="white"/>
<path d="M59.5531 13.0616C59.1141 12.8107 58.7691 12.4501 58.5339 11.9953C58.2987 11.5406 58.189 11.0075 58.189 10.396C58.189 9.75308 58.3144 9.20428 58.5653 8.73387C58.8162 8.26347 59.1768 7.88715 59.6472 7.63627C60.1176 7.3697 60.6664 7.24426 61.3093 7.24426C61.9208 7.24426 62.4383 7.3697 62.8773 7.62059C63.3164 7.87147 63.6456 8.23211 63.8808 8.68683C64.1161 9.14156 64.2258 9.67468 64.2258 10.2705C64.2258 10.9134 64.1004 11.4779 63.8495 11.964C63.5986 12.4344 63.238 12.8107 62.7676 13.0616C62.2972 13.3125 61.7484 13.4536 61.1211 13.4536C60.5253 13.4379 60.0079 13.3125 59.5531 13.0616ZM62.2658 12.3246C62.5637 12.1365 62.7832 11.8542 62.9244 11.5093C63.0655 11.1643 63.1439 10.7723 63.1439 10.3332C63.1439 9.8942 63.0812 9.51788 62.9557 9.17292C62.8303 8.82796 62.6264 8.56139 62.3442 8.35755C62.062 8.15371 61.7013 8.05963 61.2623 8.05963C60.8389 8.05963 60.4783 8.16939 60.1803 8.37323C59.8824 8.57707 59.6629 8.84364 59.5218 9.1886C59.3807 9.53356 59.3023 9.90988 59.3023 10.3176C59.3023 10.7566 59.365 11.1486 59.5061 11.4936C59.6472 11.8385 59.8511 12.1051 60.149 12.3089C60.4312 12.5128 60.7919 12.6069 61.2152 12.6069C61.6072 12.6225 61.9679 12.5128 62.2658 12.3246Z" fill="white"/>
<path d="M66.4681 13.187C66.0918 13.0145 65.8096 12.7636 65.6214 12.4344C65.4176 12.1051 65.3235 11.7131 65.3235 11.2583V7.32263H66.3584V11.1015C66.3584 11.5876 66.4838 11.9483 66.719 12.1992C66.9542 12.45 67.3149 12.5755 67.7853 12.5755C68.2713 12.5755 68.632 12.45 68.8515 12.1835C69.071 11.9326 69.1808 11.5563 69.1808 11.0545V7.32263H70.2157V11.2583C70.2157 11.7131 70.1216 12.1207 69.9178 12.4344C69.7296 12.7636 69.4474 13.0145 69.071 13.187C68.7104 13.3595 68.2714 13.4379 67.7696 13.4379C67.2678 13.4536 66.8288 13.3595 66.4681 13.187Z" fill="white"/>
<path d="M70.8899 7.32257H72.0345L73.5712 11.5562C73.6026 11.6346 73.6339 11.7444 73.681 11.8855C73.728 12.0266 73.7594 12.152 73.775 12.2618C73.8691 11.9325 73.9475 11.6816 73.9946 11.5405L75.4998 7.30688H76.5661L74.2454 13.3437H73.2105L70.8899 7.32257Z" fill="white"/>
<path d="M77.3345 7.32263H79.2161C79.906 7.32263 80.4235 7.46375 80.7841 7.73031C81.1447 8.01256 81.3172 8.40456 81.3172 8.90632C81.3172 9.21993 81.2545 9.50217 81.1291 9.75305C81.0036 10.0039 80.8468 10.1921 80.6587 10.3489C80.4705 10.5057 80.2823 10.6155 80.0785 10.6939L81.9287 13.3595H80.7214L79.1534 10.9604H78.385V13.3595H77.3501L77.3345 7.32263ZM78.9652 10.1764C79.2161 10.1764 79.4356 10.1294 79.6394 10.0353C79.8276 9.94121 79.9844 9.80009 80.0942 9.61193C80.2039 9.43945 80.251 9.21993 80.251 8.98472C80.251 8.6868 80.1569 8.46728 79.9687 8.32616C79.7806 8.18504 79.4983 8.12232 79.1377 8.12232H78.385V10.1921L78.9652 10.1764Z" fill="white"/>
<path d="M82.7441 7.32263H86.3035L86.2094 8.18504H83.7947V9.84713H86.0683V10.6468H83.7947V12.4971H86.3349L86.2408 13.3595H82.7441V7.32263Z" fill="white"/>
<path d="M91.5405 12.4814L91.4621 13.3595H86.9775V12.6852L90.0822 8.18504H87.15L87.2441 7.32263H91.415L91.3209 7.99688L88.2163 12.4971L91.5405 12.4814Z" fill="white"/>
<path d="M95.6488 13.3282C95.3196 13.2498 95.0216 13.1557 94.7708 13.0302L95.1 12.2149C95.3352 12.3246 95.5861 12.4344 95.8684 12.4971C96.1506 12.5598 96.4172 12.6069 96.6367 12.6069C96.9816 12.6069 97.2325 12.5285 97.405 12.3717C97.5775 12.2149 97.6716 12.011 97.6716 11.7758C97.6716 11.5877 97.6245 11.4309 97.5148 11.3054C97.405 11.18 97.2639 11.0702 97.1071 10.9761C96.9346 10.8821 96.6994 10.7723 96.3858 10.6312C96.0565 10.49 95.79 10.3489 95.5861 10.2078C95.3666 10.0667 95.1941 9.87852 95.0687 9.67468C94.9432 9.47084 94.8805 9.21996 94.8805 8.92204C94.8805 8.57707 94.9589 8.27915 95.1314 8.02827C95.3039 7.77739 95.5391 7.58923 95.837 7.4481C96.1349 7.30698 96.4956 7.24426 96.8876 7.24426C97.1855 7.24426 97.4834 7.27562 97.7813 7.35402C98.0793 7.41674 98.3301 7.51082 98.5183 7.60491L98.3145 8.45163C97.8127 8.21643 97.3423 8.09099 96.8876 8.09099C96.5896 8.09099 96.3544 8.15371 96.182 8.26347C96.0095 8.37323 95.9154 8.56139 95.9154 8.79659C95.9154 8.9534 95.9624 9.09452 96.0565 9.20428C96.1506 9.31404 96.276 9.4238 96.4485 9.51788C96.621 9.61196 96.8876 9.7374 97.2325 9.8942C97.5618 10.0353 97.8441 10.1921 98.0479 10.3332C98.2517 10.4744 98.4242 10.6625 98.534 10.8664C98.6437 11.0702 98.7065 11.3368 98.7065 11.6347C98.7065 12.011 98.6281 12.3403 98.4556 12.6069C98.2831 12.8734 98.0479 13.0773 97.7343 13.2184C97.4207 13.3595 97.0444 13.4222 96.621 13.4222C96.3074 13.4379 95.9781 13.4066 95.6488 13.3282Z" fill="white"/>
<path d="M100.933 13.187C100.557 13.0145 100.274 12.7636 100.086 12.4344C99.8824 12.1051 99.7883 11.7131 99.7883 11.2583V7.32263H100.823V11.1015C100.823 11.5876 100.949 11.9483 101.184 12.1992C101.419 12.45 101.78 12.5755 102.25 12.5755C102.736 12.5755 103.097 12.45 103.316 12.1835C103.536 11.9169 103.646 11.5563 103.646 11.0545V7.32263H104.681V11.2583C104.681 11.7131 104.586 12.1207 104.383 12.4344C104.194 12.7636 103.912 13.0145 103.536 13.187C103.175 13.3595 102.736 13.4379 102.234 13.4379C101.733 13.4536 101.309 13.3595 100.933 13.187Z" fill="white"/>
<path d="M106.139 7.32263H108.02C108.71 7.32263 109.228 7.46375 109.588 7.73031C109.949 8.01256 110.121 8.40456 110.121 8.90632C110.121 9.21993 110.059 9.50217 109.933 9.75305C109.808 10.0039 109.651 10.1921 109.463 10.3489C109.275 10.5057 109.087 10.6155 108.883 10.6939L110.733 13.3595H109.526L107.958 10.9604H107.189V13.3595H106.154L106.139 7.32263ZM107.785 10.1764C108.036 10.1764 108.255 10.1294 108.459 10.0353C108.647 9.94121 108.804 9.80009 108.914 9.61193C109.024 9.43945 109.071 9.21993 109.071 8.98472C109.071 8.6868 108.977 8.46728 108.789 8.32616C108.6 8.18504 108.318 8.12232 107.958 8.12232H107.205V10.1921L107.785 10.1764Z" fill="white"/>
</g>
<defs>
<clipPath id="clip0_26_5065">
<rect width="133.344" height="40" fill="white"/>
</clipPath>
</defs>
</svg>
