<svg width="135" height="40" viewBox="0 0 135 40" fill="none" xmlns="http://www.w3.org/2000/svg">
<g id="Google Play Badge">
<path id="Vector" d="M130 0H5C2.23858 0 0 2.23858 0 5V35C0 37.7614 2.23858 40 5 40H130C132.761 40 135 37.7614 135 35V5C135 2.23858 132.761 0 130 0Z" fill="black"/>
<path id="Vector_2" d="M130 0.8C131.114 0.8 132.182 1.2425 132.97 2.03015C133.758 2.8178 134.2 3.88609 134.2 5V35C134.2 36.1139 133.758 37.1822 132.97 37.9698C132.182 38.7575 131.114 39.2 130 39.2H5C3.88609 39.2 2.8178 38.7575 2.03015 37.9698C1.2425 37.1822 0.8 36.1139 0.8 35V5C0.8 3.88609 1.2425 2.8178 2.03015 2.03015C2.8178 1.2425 3.88609 0.8 5 0.8H130ZM130 0H5C3.67392 0 2.40215 0.526784 1.46447 1.46447C0.526784 2.40215 0 3.67392 0 5V35C0 36.3261 0.526784 37.5979 1.46447 38.5355C2.40215 39.4732 3.67392 40 5 40H130C131.326 40 132.598 39.4732 133.536 38.5355C134.473 37.5979 135 36.3261 135 35V5C135 3.67392 134.473 2.40215 133.536 1.46447C132.598 0.526784 131.326 0 130 0Z" fill="#A6A6A6"/>
<path id="Vector_3" d="M68.1401 21.7499C67.2976 21.7519 66.4745 22.0037 65.7751 22.4734C65.0756 22.9432 64.5312 23.6098 64.2106 24.3889C63.89 25.1681 63.8076 26.0248 63.9739 26.8508C64.1402 27.6768 64.5477 28.4349 65.1449 29.0293C65.7421 29.6236 66.5021 30.0276 67.3288 30.19C68.1556 30.3524 69.0119 30.2661 69.7896 29.9418C70.5672 29.6175 71.2313 29.07 71.6977 28.3683C72.1642 27.6667 72.4121 26.8425 72.4101 25.9999C72.4183 25.4379 72.3132 24.8799 72.1013 24.3593C71.8893 23.8386 71.5748 23.366 71.1764 22.9694C70.7779 22.5729 70.3038 22.2606 69.7822 22.051C69.2606 21.8415 68.7021 21.7391 68.1401 21.7499ZM68.1401 28.5799C67.6237 28.616 67.1083 28.496 66.6611 28.2353C66.2138 27.9747 65.8553 27.5855 65.6321 27.1184C65.409 26.6512 65.3315 26.1278 65.4098 25.6161C65.4881 25.1043 65.7185 24.628 66.0711 24.249C66.4237 23.8699 66.8821 23.6057 67.3869 23.4907C67.8916 23.3757 68.4193 23.4152 68.9013 23.604C69.3833 23.7929 69.7973 24.1223 70.0896 24.5496C70.3819 24.9769 70.5388 25.4822 70.5401 25.9999C70.5562 26.3279 70.5065 26.6559 70.3938 26.9643C70.2812 27.2728 70.1079 27.5556 69.8842 27.7961C69.6606 28.0366 69.391 28.2298 69.0914 28.3644C68.7919 28.499 68.4684 28.5723 68.1401 28.5799ZM58.8201 21.7499C57.9776 21.7519 57.1545 22.0037 56.4551 22.4734C55.7556 22.9432 55.2112 23.6098 54.8906 24.3889C54.57 25.1681 54.4876 26.0248 54.6539 26.8508C54.8202 27.6768 55.2277 28.4349 55.8249 29.0293C56.4221 29.6236 57.1821 30.0276 58.0088 30.19C58.8356 30.3524 59.6919 30.2661 60.4696 29.9418C61.2472 29.6175 61.9113 29.07 62.3777 28.3683C62.8442 27.6667 63.0921 26.8425 63.0901 25.9999C63.0982 25.4379 62.9932 24.8799 62.7813 24.3593C62.5693 23.8386 62.2548 23.366 61.8564 22.9694C61.4579 22.5729 60.9838 22.2606 60.4622 22.051C59.9406 21.8415 59.3821 21.7391 58.8201 21.7499ZM58.8201 28.5799C58.3037 28.616 57.7883 28.496 57.3411 28.2353C56.8938 27.9747 56.5353 27.5855 56.3121 27.1184C56.089 26.6512 56.0115 26.1278 56.0898 25.6161C56.1681 25.1043 56.3985 24.628 56.7511 24.249C57.1037 23.8699 57.5621 23.6057 58.0669 23.4907C58.5716 23.3757 59.0993 23.4152 59.5813 23.604C60.0633 23.7929 60.4773 24.1223 60.7696 24.5496C61.0619 24.9769 61.2188 25.4822 61.2201 25.9999C61.2362 26.3279 61.1865 26.6559 61.0738 26.9643C60.9612 27.2728 60.7879 27.5556 60.5642 27.7961C60.3406 28.0366 60.071 28.2298 59.7714 28.3644C59.4719 28.499 59.1484 28.5723 58.8201 28.5799ZM47.7401 23.0599V24.8599H52.0601C51.9924 25.7077 51.6399 26.5077 51.0601 27.1299C50.6268 27.5714 50.1056 27.9171 49.5302 28.1444C48.9549 28.3718 48.3382 28.4759 47.7201 28.4499C46.4471 28.4499 45.2262 27.9442 44.326 27.044C43.4258 26.1439 42.9201 24.923 42.9201 23.6499C42.9201 22.3769 43.4258 21.156 44.326 20.2558C45.2262 19.3556 46.4471 18.8499 47.7201 18.8499C48.9405 18.8318 50.119 19.2952 51.0001 20.1399L52.2701 18.8699C51.6741 18.2804 50.9664 17.8158 50.1886 17.5033C49.4107 17.1908 48.5783 17.0366 47.7401 17.0499C46.8511 17.0153 45.9643 17.1605 45.1327 17.4769C44.3012 17.7932 43.5421 18.2742 42.9009 18.8909C42.2596 19.5077 41.7495 20.2475 41.4011 21.0661C41.0527 21.8847 40.873 22.7652 40.873 23.6549C40.873 24.5446 41.0527 25.4251 41.4011 26.2437C41.7495 27.0623 42.2596 27.8022 42.9009 28.4189C43.5421 29.0357 44.3012 29.5166 45.1327 29.833C45.9643 30.1493 46.8511 30.2945 47.7401 30.2599C48.5955 30.2941 49.4485 30.1469 50.243 29.8281C51.0375 29.5092 51.7556 29.0259 52.3501 28.4099C53.4002 27.2563 53.9598 25.7391 53.9101 24.1799C53.9137 23.8046 53.8836 23.4298 53.8201 23.0599H47.7401ZM93.0501 24.4599C92.7893 23.6927 92.3016 23.0227 91.6516 22.5388C91.0016 22.0548 90.2199 21.7797 89.4101 21.7499C88.8631 21.7489 88.3217 21.86 87.8193 22.0765C87.317 22.2929 86.8644 22.6101 86.4895 23.0085C86.1146 23.4068 85.8254 23.8778 85.6397 24.3923C85.4541 24.9068 85.3759 25.454 85.4101 25.9999C85.4016 26.9128 85.6885 27.8039 86.2282 28.5402C86.7679 29.2765 87.5313 29.8184 88.4044 30.0851C89.2774 30.3517 90.2134 30.3288 91.0723 30.0196C91.9313 29.7105 92.6672 29.1318 93.1701 28.3699L91.7201 27.3699C91.5039 27.7302 91.1974 28.0277 90.8307 28.2329C90.4641 28.4382 90.0502 28.544 89.6301 28.5399C89.1967 28.5578 88.768 28.4442 88.4003 28.214C88.0327 27.9837 87.7432 27.6477 87.5701 27.2499L93.2601 24.8999L93.0501 24.4599ZM87.2501 25.8799C87.2298 25.5693 87.2717 25.2578 87.3734 24.9635C87.475 24.6693 87.6343 24.3983 87.842 24.1664C88.0497 23.9346 88.3015 23.7464 88.5828 23.6131C88.8641 23.4798 89.1691 23.4039 89.4801 23.3899C89.8023 23.3703 90.1231 23.4461 90.4024 23.608C90.6817 23.7699 90.907 24.0106 91.0501 24.2999L87.2501 25.8799ZM82.6301 29.9999H84.5001V17.4999H82.6301V29.9999ZM79.5701 22.6999H79.5001C79.2207 22.3818 78.876 22.1277 78.4894 21.9551C78.1028 21.7825 77.6835 21.6955 77.2601 21.6999C76.1673 21.7529 75.1367 22.2243 74.3821 23.0165C73.6274 23.8087 73.2064 24.8608 73.2064 25.9549C73.2064 27.049 73.6274 28.1012 74.3821 28.8933C75.1367 29.6855 76.1673 30.1569 77.2601 30.2099C77.6841 30.2184 78.1047 30.1332 78.4919 29.9603C78.8791 29.7875 79.2234 29.5312 79.5001 29.2099H79.5701V29.8199C79.5701 31.4499 78.7001 32.3199 77.3001 32.3199C76.8324 32.3096 76.3783 32.1606 75.9955 31.8918C75.6127 31.6229 75.3185 31.2464 75.1501 30.8099L73.5301 31.4799C73.8296 32.2322 74.3504 32.8758 75.0235 33.3258C75.6966 33.7757 76.4905 34.0108 77.3001 33.9999C79.4901 33.9999 81.3001 32.7099 81.3001 29.5699V21.9999H79.5701V22.6999ZM77.4201 28.5799C76.7649 28.5391 76.1499 28.25 75.7004 27.7716C75.2509 27.2932 75.0006 26.6614 75.0006 26.0049C75.0006 25.3485 75.2509 24.7167 75.7004 24.2383C76.1499 23.7598 76.7649 23.4708 77.4201 23.4299C77.7403 23.4437 78.0545 23.5218 78.344 23.6596C78.6334 23.7973 78.8922 23.9918 79.1049 24.2316C79.3176 24.4714 79.4799 24.7515 79.5822 25.0553C79.6844 25.3591 79.7245 25.6803 79.7001 25.9999C79.7274 26.3206 79.6893 26.6435 79.5883 26.9491C79.4872 27.2546 79.3252 27.5365 79.1121 27.7777C78.8989 28.0189 78.6391 28.2143 78.3483 28.3522C78.0575 28.4901 77.7417 28.5676 77.4201 28.5799ZM101.81 17.4999H97.3301V29.9999H99.2001V25.2599H101.81C102.343 25.2982 102.878 25.2263 103.382 25.0487C103.886 24.871 104.348 24.5915 104.739 24.2274C105.13 23.8634 105.442 23.4227 105.655 22.9328C105.869 22.4428 105.979 21.9142 105.979 21.3799C105.979 20.8456 105.869 20.317 105.655 19.8271C105.442 19.3372 105.13 18.8965 104.739 18.5324C104.348 18.1684 103.886 17.8888 103.382 17.7112C102.878 17.5336 102.343 17.4616 101.81 17.4999ZM101.81 23.4999H99.2001V19.2399H101.85C102.131 19.2399 102.409 19.2953 102.669 19.4028C102.929 19.5104 103.165 19.668 103.363 19.8667C103.562 20.0654 103.72 20.3013 103.827 20.561C103.935 20.8206 103.99 21.0989 103.99 21.3799C103.99 21.661 103.935 21.9392 103.827 22.1989C103.72 22.4585 103.562 22.6944 103.363 22.8931C103.165 23.0918 102.929 23.2495 102.669 23.357C102.409 23.4646 102.131 23.5199 101.85 23.5199L101.81 23.4999ZM113.35 21.7099C112.669 21.6679 111.991 21.8265 111.399 22.1659C110.807 22.5054 110.328 23.0109 110.02 23.6199L111.67 24.3099C111.837 24.0093 112.087 23.7634 112.39 23.602C112.694 23.4405 113.038 23.3703 113.38 23.3999C113.617 23.3722 113.858 23.392 114.088 23.4582C114.317 23.5245 114.531 23.6358 114.718 23.7856C114.904 23.9355 115.058 24.1209 115.172 24.3311C115.286 24.5413 115.356 24.7721 115.38 25.0099V25.1299C114.779 24.8138 114.109 24.6491 113.43 24.6499C111.65 24.6499 109.83 25.6499 109.83 27.4699C109.848 27.8568 109.943 28.2361 110.11 28.5855C110.277 28.9348 110.513 29.247 110.803 29.5035C111.093 29.7601 111.432 29.9557 111.799 30.0787C112.166 30.2018 112.554 30.2498 112.94 30.2199C113.409 30.2459 113.877 30.1466 114.295 29.9322C114.714 29.7178 115.067 29.3961 115.32 28.9999H115.38V29.9999H117.18V25.1899C117.18 22.9999 115.52 21.7299 113.39 21.7299L113.35 21.7099ZM113.12 28.5599C112.51 28.5599 111.66 28.2499 111.66 27.4999C111.66 26.4999 112.72 26.1599 113.66 26.1599C114.254 26.1453 114.841 26.2903 115.36 26.5799C115.297 27.123 115.04 27.6249 114.635 27.9926C114.231 28.3604 113.707 28.569 113.16 28.5799L113.12 28.5599ZM123.74 21.9999L121.6 27.4199H121.54L119.32 21.9999H117.32L120.65 29.5799L118.75 33.7899H120.7L125.82 21.9999H123.74ZM106.94 29.9999H108.8V17.4999H106.94V29.9999Z" fill="white"/>
<path id="Vector_4" d="M10.4401 7.53997C10.1106 7.92959 9.94245 8.43043 9.97012 8.93997V31.06C9.93609 31.5704 10.105 32.0735 10.4401 32.46L10.5101 32.54L22.9001 20.15V19.85L10.5101 7.46997L10.4401 7.53997Z" fill="url(#paint0_linear_26_4890)"/>
<path id="Vector_5" d="M26.9999 24.28L22.8999 20.15V19.85L26.9999 15.72L27.0899 15.78L31.9999 18.56C33.3999 19.35 33.3999 20.65 31.9999 21.45L27.1099 24.23L26.9999 24.28Z" fill="url(#paint1_linear_26_4890)"/>
<path id="Vector_6" d="M27.1199 24.22L22.8999 20L10.4399 32.46C10.7225 32.7115 11.0842 32.8562 11.4623 32.869C11.8404 32.8818 12.211 32.7619 12.5099 32.53L27.1199 24.22Z" fill="url(#paint2_linear_26_4890)"/>
<path id="Vector_7" d="M27.1199 15.78L12.5099 7.47997C12.213 7.24488 11.8426 7.12203 11.464 7.133C11.0854 7.14397 10.7228 7.28808 10.4399 7.53997L22.8999 20L27.1199 15.78Z" fill="url(#paint3_linear_26_4890)"/>
<path id="Vector_8" opacity="0.2" d="M26.9999 24.13L12.5099 32.38C12.2219 32.5974 11.8708 32.715 11.5099 32.715C11.1491 32.715 10.798 32.5974 10.5099 32.38L10.4399 32.45L10.5099 32.53C10.798 32.7474 11.1491 32.865 11.5099 32.865C11.8708 32.865 12.2219 32.7474 12.5099 32.53L27.1199 24.22L26.9999 24.13Z" fill="black"/>
<path id="Vector_9" opacity="0.12" d="M10.4399 32.3199C10.1187 31.9233 9.96126 31.4188 9.99988 30.9099V31.0599C9.96585 31.5703 10.1348 32.0735 10.4699 32.4599L10.5399 32.3899L10.4399 32.3199Z" fill="black"/>
<path id="Vector_10" opacity="0.12" d="M32 21.3L27 24.13L27.09 24.22L32 21.44C32.2898 21.3174 32.5413 21.119 32.7278 20.8656C32.9143 20.6122 33.0291 20.3132 33.06 20C32.9975 20.2846 32.869 20.5505 32.6849 20.7763C32.5007 21.0021 32.2662 21.1815 32 21.3Z" fill="black"/>
<path id="Vector_11" opacity="0.25" d="M12.51 7.61998L32 18.7C32.2661 18.8185 32.5007 18.9979 32.6848 19.2237C32.869 19.4495 32.9975 19.7154 33.06 20C33.0291 19.6868 32.9143 19.3878 32.7278 19.1344C32.5412 18.881 32.2898 18.6825 32 18.56L12.51 7.47998C11.12 6.67998 9.96997 7.33998 9.96997 8.93998V9.08998C9.99997 7.48998 11.12 6.82998 12.51 7.61998Z" fill="white"/>
<path id="Vector_12" d="M41.28 13.0001V7.00008H43.11C43.517 6.98041 43.9238 7.04385 44.3055 7.18655C44.6871 7.32926 45.0358 7.54822 45.33 7.83008C45.6057 8.11843 45.8211 8.45887 45.9636 8.83147C46.1061 9.20407 46.1729 9.60136 46.16 10.0001C46.1729 10.3988 46.1061 10.7961 45.9636 11.1687C45.8211 11.5413 45.6057 11.8817 45.33 12.1701C45.0358 12.4519 44.6871 12.6709 44.3055 12.8136C43.9238 12.9563 43.517 13.0198 43.11 13.0001H41.28ZM42.05 12.2601H43.11C43.4137 12.2877 43.7198 12.2483 44.0066 12.1445C44.2933 12.0407 44.5537 11.8751 44.7694 11.6594C44.985 11.4438 45.1506 11.1834 45.2544 10.8966C45.3582 10.6099 45.3977 10.3038 45.37 10.0001C45.3959 9.69677 45.3552 9.39147 45.2508 9.10553C45.1463 8.8196 44.9807 8.55992 44.7654 8.34467C44.5502 8.12942 44.2905 7.96379 44.0046 7.85936C43.7186 7.75493 43.4133 7.71422 43.11 7.74008H42.05V12.2601Z" fill="white" stroke="white" stroke-width="0.2" stroke-miterlimit="10"/>
<path id="Vector_13" d="M47.24 13V7H48V13H47.24Z" fill="white" stroke="white" stroke-width="0.2" stroke-miterlimit="10"/>
<path id="Vector_14" d="M51.07 13.1301C50.6138 13.1227 50.1707 12.9762 49.8 12.7101C49.3858 12.4271 49.0932 11.9988 48.98 11.5101L49.68 11.2201C49.7658 11.5456 49.9469 11.8381 50.2 12.0601C50.4388 12.2757 50.7482 12.3966 51.07 12.4001C51.379 12.4105 51.6823 12.3152 51.93 12.1301C52.0447 12.0514 52.1377 11.9451 52.2007 11.8211C52.2636 11.697 52.2943 11.5591 52.29 11.4201C52.298 11.2706 52.2693 11.1214 52.2066 10.9855C52.1439 10.8496 52.0489 10.731 51.93 10.6401C51.5877 10.4088 51.2092 10.2364 50.81 10.1301C50.36 10.0146 49.9448 9.7915 49.6 9.48009C49.4664 9.35064 49.3611 9.19499 49.2905 9.02291C49.22 8.85083 49.1858 8.66602 49.19 8.48009C49.1902 8.26637 49.2357 8.05513 49.3237 7.86034C49.4116 7.66554 49.5398 7.49162 49.7 7.35009C50.0621 7.06163 50.5074 6.89717 50.9701 6.88096C51.4328 6.86476 51.8885 6.99767 52.27 7.26009C52.558 7.46551 52.7747 7.75566 52.89 8.09009L52.19 8.38009C52.1236 8.17256 51.9943 7.99084 51.82 7.86009C51.6021 7.68618 51.3285 7.59734 51.05 7.61009C50.7757 7.60563 50.508 7.6937 50.29 7.86009C50.1928 7.93145 50.1141 8.02489 50.0602 8.13269C50.0063 8.24049 49.9788 8.35957 49.98 8.48009C49.9786 8.59006 50.0044 8.69868 50.055 8.79634C50.1055 8.89401 50.1794 8.97772 50.27 9.04009C50.5261 9.22949 50.8139 9.37172 51.12 9.46009C51.3718 9.53543 51.6188 9.62559 51.86 9.73009C52.0726 9.82765 52.2738 9.94838 52.46 10.0901C52.6575 10.2314 52.8158 10.4207 52.92 10.6401C53.0324 10.8808 53.0872 11.1445 53.08 11.4101C53.0845 11.6809 53.0227 11.9487 52.9 12.1901C52.79 12.409 52.6245 12.5952 52.42 12.7301C52.2246 12.867 52.0085 12.9717 51.78 13.0401C51.549 13.1048 51.3098 13.1351 51.07 13.1301Z" fill="white" stroke="white" stroke-width="0.2" stroke-miterlimit="10"/>
<path id="Vector_15" d="M55 13H54.23V7.00003H56.23C56.7196 6.99163 57.1932 7.1746 57.55 7.51003C57.7267 7.6721 57.8678 7.86912 57.9643 8.08861C58.0608 8.3081 58.1107 8.54526 58.1107 8.78503C58.1107 9.02481 58.0608 9.26197 57.9643 9.48145C57.8678 9.70094 57.7267 9.89797 57.55 10.06C57.1932 10.3955 56.7196 10.5784 56.23 10.57H55V13ZM55 9.83003H56.3C56.4438 9.83524 56.587 9.80935 56.7199 9.75412C56.8528 9.69889 56.9722 9.61564 57.07 9.51003C57.1683 9.41661 57.2466 9.30416 57.3001 9.17953C57.3536 9.05489 57.3812 8.92067 57.3812 8.78503C57.3812 8.6494 57.3536 8.51518 57.3001 8.39054C57.2466 8.2659 57.1683 8.15345 57.07 8.06003C56.9722 7.95443 56.8528 7.87117 56.7199 7.81595C56.587 7.76072 56.4438 7.73483 56.3 7.74003H55V9.83003Z" fill="white" stroke="white" stroke-width="0.2" stroke-miterlimit="10"/>
<path id="Vector_16" d="M64.0001 12.22C63.7112 12.509 63.3683 12.7383 62.9908 12.8948C62.6133 13.0512 62.2087 13.1318 61.8001 13.1318C61.3914 13.1318 60.9868 13.0512 60.6093 12.8948C60.2318 12.7383 59.8889 12.509 59.6001 12.22C59.0347 11.619 58.72 10.825 58.72 9.99996C58.72 9.1749 59.0347 8.38091 59.6001 7.77996C59.8889 7.4909 60.2318 7.26159 60.6093 7.10514C60.9868 6.94869 61.3914 6.86816 61.8001 6.86816C62.2087 6.86816 62.6133 6.94869 62.9908 7.10514C63.3683 7.26159 63.7112 7.4909 64.0001 7.77996C64.2853 8.0736 64.5092 8.42118 64.6586 8.80236C64.808 9.18354 64.8799 9.59067 64.8701 9.99996C64.8845 10.4098 64.8147 10.8183 64.6651 11.2001C64.5154 11.5819 64.2891 11.929 64.0001 12.22ZM60.1701 11.72C60.3808 11.9388 60.6341 12.1121 60.9145 12.229C61.1949 12.346 61.4963 12.4042 61.8001 12.4C62.1041 12.406 62.406 12.3486 62.6866 12.2316C62.9673 12.1145 63.2205 11.9403 63.4301 11.72C63.8615 11.2511 64.101 10.6372 64.101 9.99996C64.101 9.36276 63.8615 8.74883 63.4301 8.27996C63.2205 8.05967 62.9673 7.88543 62.6866 7.76836C62.406 7.65128 62.1041 7.59393 61.8001 7.59996C61.4963 7.59575 61.1949 7.65392 60.9145 7.77089C60.6341 7.88785 60.3808 8.06112 60.1701 8.27996C59.7449 8.75197 59.5096 9.36471 59.5096 9.99996C59.5096 10.6352 59.7449 11.248 60.1701 11.72Z" fill="white" stroke="white" stroke-width="0.2" stroke-miterlimit="10"/>
<path id="Vector_17" d="M66 13V7H66.94L69.85 11.67V10.51V7H70.63V13H69.82L66.82 8.11V9.26V13H66Z" fill="white" stroke="white" stroke-width="0.2" stroke-miterlimit="10"/>
<path id="Vector_18" d="M72 13V7H72.77V13H72Z" fill="white" stroke="white" stroke-width="0.2" stroke-miterlimit="10"/>
<path id="Vector_19" d="M74.0901 13V6.99997H76.2601C76.71 6.99545 77.1452 7.15956 77.4801 7.45997C77.6472 7.60498 77.7804 7.78495 77.8702 7.98713C77.9601 8.18931 78.0044 8.40876 78.0001 8.62997C78.0025 8.89934 77.926 9.16354 77.7801 9.38997C77.6325 9.60468 77.4283 9.77429 77.1901 9.87997C77.4788 9.97869 77.7325 10.1594 77.9201 10.4C78.1039 10.645 78.2023 10.9436 78.2001 11.25C78.2052 11.4805 78.1595 11.7093 78.0661 11.9202C77.9728 12.131 77.8342 12.3187 77.6601 12.47C77.313 12.7929 76.8541 12.9686 76.3801 12.96L74.0901 13ZM74.8601 9.56997H76.2601C76.3911 9.57755 76.5221 9.5554 76.6433 9.50518C76.7645 9.45496 76.8728 9.37797 76.9601 9.27997C77.1297 9.1138 77.2267 8.88736 77.2301 8.64997C77.2395 8.41184 77.1572 8.17916 77.0001 7.99997C76.916 7.90671 76.8123 7.83324 76.6965 7.78482C76.5806 7.73641 76.4555 7.71426 76.3301 7.71997H74.8601V9.56997ZM74.8601 12.26H76.4201C76.5555 12.2645 76.6903 12.2391 76.8148 12.1855C76.9392 12.1319 77.0503 12.0515 77.1401 11.95C77.3128 11.7655 77.4092 11.5226 77.4101 11.27C77.404 11.0194 77.3041 10.7803 77.1301 10.6C77.0337 10.4987 76.9171 10.4189 76.7879 10.3655C76.6588 10.3121 76.5198 10.2864 76.3801 10.29H74.8601V12.26Z" fill="white" stroke="white" stroke-width="0.2" stroke-miterlimit="10"/>
<path id="Vector_20" d="M79.24 13V7H80V12.26H82.6V13H79.24Z" fill="white" stroke="white" stroke-width="0.2" stroke-miterlimit="10"/>
<path id="Vector_21" d="M87.0801 7.74H84.3501V9.64H86.8101V10.36H84.3501V12.26H87.0801V13H83.5801V7H87.0801V7.74Z" fill="white" stroke="white" stroke-width="0.2" stroke-miterlimit="10"/>
<path id="Vector_22" d="M91.7399 13.1301C91.2808 13.1216 90.8348 12.9753 90.4599 12.7101C90.0495 12.4253 89.7606 11.9972 89.6499 11.5101L90.3499 11.2201C90.4357 11.5456 90.6168 11.8381 90.8699 12.0601C91.1088 12.2757 91.4182 12.3966 91.7399 12.4001C92.0487 12.4089 92.3515 12.3138 92.5999 12.1301C92.7146 12.0514 92.8077 11.9451 92.8706 11.8211C92.9335 11.697 92.9642 11.5591 92.9599 11.4201C92.9679 11.2706 92.9393 11.1214 92.8765 10.9855C92.8138 10.8496 92.7188 10.731 92.5999 10.6401C92.2539 10.4091 91.8721 10.2367 91.4699 10.1301C91.0229 10.0146 90.6109 9.7914 90.2699 9.48009C90.1344 9.35216 90.0277 9.19679 89.957 9.02434C89.8863 8.8519 89.8532 8.66635 89.8599 8.48009C89.8601 8.26637 89.9057 8.05513 89.9936 7.86034C90.0815 7.66554 90.2098 7.49162 90.3699 7.35009C90.7321 7.06163 91.1773 6.89717 91.64 6.88096C92.1028 6.86476 92.5585 6.99767 92.9399 7.26009C93.2279 7.46551 93.4446 7.75566 93.5599 8.09009L92.8599 8.38009C92.794 8.16959 92.6604 7.98677 92.4799 7.86009C92.2665 7.68518 91.9955 7.59605 91.7199 7.61009C91.4457 7.60563 91.1779 7.6937 90.9599 7.86009C90.8615 7.93094 90.7813 8.02403 90.7256 8.13177C90.67 8.2395 90.6407 8.35885 90.6399 8.48009C90.6411 8.58961 90.6679 8.69734 90.7183 8.7946C90.7686 8.89186 90.8411 8.97594 90.9299 9.04009C91.1885 9.22546 91.4756 9.36733 91.7799 9.46009C92.0354 9.53393 92.2859 9.62412 92.5299 9.73009C92.7413 9.82992 92.9423 9.95052 93.1299 10.0901C93.3275 10.2314 93.4858 10.4207 93.5899 10.6401C93.6975 10.8824 93.7521 11.145 93.7499 11.4101C93.7544 11.6809 93.6926 11.9487 93.5699 12.1901C93.4599 12.409 93.2944 12.5952 93.0899 12.7301C92.8945 12.867 92.6784 12.9717 92.4499 13.0401C92.2189 13.1048 91.9797 13.1351 91.7399 13.1301Z" fill="white" stroke="white" stroke-width="0.2" stroke-miterlimit="10"/>
<path id="Vector_23" d="M96.94 13.13C96.6408 13.1427 96.3423 13.0913 96.0647 12.9792C95.787 12.8671 95.5365 12.6969 95.33 12.48C94.9106 12.0119 94.6916 11.3979 94.72 10.77V7H95.49V10.8C95.4696 11.2186 95.601 11.6305 95.86 11.96C95.9957 12.1094 96.1631 12.2265 96.35 12.3026C96.5369 12.3788 96.7385 12.4121 96.94 12.4C97.1353 12.4162 97.3317 12.3887 97.5151 12.3195C97.6984 12.2503 97.8641 12.1412 98 12C98.2626 11.6719 98.3976 11.2599 98.38 10.84V7H99.15V10.77C99.1801 11.3964 98.9648 12.0098 98.55 12.48C98.3447 12.6985 98.0944 12.8697 97.8164 12.982C97.5384 13.0942 97.2394 13.1447 96.94 13.13Z" fill="white" stroke="white" stroke-width="0.2" stroke-miterlimit="10"/>
<path id="Vector_24" d="M100.4 13V7.00003H102.4C102.89 6.99163 103.363 7.1746 103.72 7.51003C103.902 7.66899 104.046 7.86615 104.143 8.08742C104.24 8.30869 104.287 8.54861 104.28 8.79003C104.28 9.19704 104.134 9.59062 103.87 9.90003C103.614 10.2079 103.262 10.4195 102.87 10.5L104.55 13H103.64L102 10.57H101.15V13H100.4ZM101.17 9.85003H102.41C102.702 9.85597 102.985 9.74844 103.2 9.55003C103.306 9.45429 103.39 9.33692 103.447 9.20582C103.504 9.07472 103.532 8.93294 103.53 8.79003C103.527 8.51912 103.424 8.25887 103.24 8.06003C103.141 7.95312 103.02 7.86909 102.885 7.81381C102.751 7.75854 102.605 7.73336 102.46 7.74003H101.17V9.85003Z" fill="white" stroke="white" stroke-width="0.2" stroke-miterlimit="10"/>
</g>
<defs>
<linearGradient id="paint0_linear_26_4890" x1="21.8001" y1="8.70997" x2="5.02012" y2="25.49" gradientUnits="userSpaceOnUse">
<stop stop-color="#00A0FF"/>
<stop offset="0.01" stop-color="#00A1FF"/>
<stop offset="0.26" stop-color="#00BEFF"/>
<stop offset="0.51" stop-color="#00D2FF"/>
<stop offset="0.76" stop-color="#00DFFF"/>
<stop offset="1" stop-color="#00E3FF"/>
</linearGradient>
<linearGradient id="paint1_linear_26_4890" x1="33.8299" y1="20" x2="9.6399" y2="20" gradientUnits="userSpaceOnUse">
<stop stop-color="#FFE000"/>
<stop offset="0.41" stop-color="#FFBD00"/>
<stop offset="0.78" stop-color="#FFA500"/>
<stop offset="1" stop-color="#FF9C00"/>
</linearGradient>
<linearGradient id="paint2_linear_26_4890" x1="24.8299" y1="22.3" x2="2.06994" y2="45.05" gradientUnits="userSpaceOnUse">
<stop stop-color="#FF3A44"/>
<stop offset="1" stop-color="#C31162"/>
</linearGradient>
<linearGradient id="paint3_linear_26_4890" x1="7.29994" y1="0.17997" x2="17.4599" y2="10.34" gradientUnits="userSpaceOnUse">
<stop stop-color="#32A071"/>
<stop offset="0.07" stop-color="#2DA771"/>
<stop offset="0.48" stop-color="#15CF74"/>
<stop offset="0.8" stop-color="#06E775"/>
<stop offset="1" stop-color="#00F076"/>
</linearGradient>
</defs>
</svg>
